<svg xmlns="http://www.w3.org/2000/svg" xmlns:xlink="http://www.w3.org/1999/xlink" viewBox="0 0 2793.91 2800"><defs><style>.cls-1{isolation:isolate;}.cls-2{fill:url(#linear-gradient);}.cls-3{fill:#bdd0fb;}.cls-4,.cls-46,.cls-8{fill:#fff;}.cls-4{mix-blend-mode:soft-light;}.cls-5{fill:#91b3fa;}.cls-6{fill:url(#linear-gradient-2);}.cls-7{fill:url(#linear-gradient-3);}.cls-9{fill:url(#linear-gradient-4);}.cls-10{fill:url(#linear-gradient-5);}.cls-11{fill:url(#linear-gradient-6);}.cls-12{fill:url(#linear-gradient-7);}.cls-13{fill:url(#linear-gradient-8);}.cls-14{fill:url(#linear-gradient-9);}.cls-15{fill:url(#linear-gradient-10);}.cls-16{fill:url(#linear-gradient-11);}.cls-17{fill:url(#linear-gradient-12);}.cls-18{fill:url(#linear-gradient-13);}.cls-19{fill:url(#linear-gradient-14);}.cls-20{fill:url(#linear-gradient-15);}.cls-21{fill:url(#linear-gradient-16);}.cls-22{fill:url(#linear-gradient-17);}.cls-23{fill:url(#linear-gradient-18);}.cls-24{fill:url(#linear-gradient-19);}.cls-25{fill:url(#linear-gradient-20);}.cls-26{fill:url(#linear-gradient-21);}.cls-27{fill:url(#linear-gradient-22);}.cls-28{fill:url(#linear-gradient-23);}.cls-29{fill:url(#linear-gradient-24);}.cls-30{fill:url(#linear-gradient-25);}.cls-31{fill:url(#linear-gradient-26);}.cls-32{fill:url(#linear-gradient-27);}.cls-33{fill:url(#linear-gradient-28);}.cls-34{fill:url(#linear-gradient-29);}.cls-35{fill:url(#linear-gradient-30);}.cls-36{fill:#7d97f4;}.cls-37{fill:url(#linear-gradient-31);}.cls-38{fill:url(#linear-gradient-32);}.cls-39{fill:url(#linear-gradient-33);}.cls-40{fill:url(#linear-gradient-34);}.cls-41{fill:url(#linear-gradient-35);}.cls-42{fill:url(#linear-gradient-36);}.cls-43{fill:url(#linear-gradient-37);}.cls-44{fill:url(#linear-gradient-38);}.cls-45{fill:url(#linear-gradient-39);}.cls-46{opacity:0.7;}.cls-47{fill:url(#linear-gradient-40);}.cls-48{fill:url(#linear-gradient-41);}.cls-49{fill:url(#linear-gradient-42);}.cls-50{fill:url(#linear-gradient-43);}.cls-51{fill:url(#linear-gradient-44);}.cls-52{fill:url(#linear-gradient-45);}.cls-53{fill:url(#linear-gradient-46);}.cls-54{fill:url(#linear-gradient-47);}.cls-55{fill:url(#linear-gradient-48);}.cls-56{fill:url(#linear-gradient-49);}.cls-57{fill:url(#linear-gradient-50);}.cls-58{fill:url(#linear-gradient-51);}.cls-59{fill:url(#linear-gradient-52);}.cls-60{fill:url(#linear-gradient-53);}.cls-61{fill:url(#linear-gradient-54);}.cls-62{fill:url(#linear-gradient-55);}.cls-63{fill:url(#linear-gradient-56);}.cls-64{fill:url(#linear-gradient-57);}.cls-65{fill:url(#linear-gradient-58);}.cls-66{fill:#666694;}.cls-67{fill:url(#linear-gradient-59);}.cls-68{fill:url(#linear-gradient-60);}.cls-69{fill:url(#linear-gradient-61);}.cls-70{fill:url(#linear-gradient-62);}.cls-71{fill:url(#linear-gradient-63);}.cls-72{fill:url(#linear-gradient-64);}.cls-73{fill:url(#linear-gradient-65);}.cls-74{fill:url(#linear-gradient-66);}.cls-75{fill:url(#linear-gradient-67);}.cls-76{fill:url(#linear-gradient-68);}.cls-77{fill:url(#linear-gradient-69);}.cls-78{fill:url(#linear-gradient-70);}.cls-79{fill:url(#linear-gradient-71);}.cls-80{fill:url(#linear-gradient-72);}.cls-81{fill:url(#linear-gradient-73);}.cls-82{fill:url(#linear-gradient-74);}.cls-83{fill:url(#linear-gradient-75);}.cls-84{fill:url(#linear-gradient-76);}.cls-85{fill:url(#linear-gradient-77);}.cls-86{fill:url(#linear-gradient-78);}.cls-87{fill:url(#linear-gradient-79);}.cls-88{fill:url(#linear-gradient-80);}.cls-89{fill:url(#linear-gradient-81);}.cls-90{fill:url(#linear-gradient-82);}.cls-91{fill:url(#linear-gradient-83);}.cls-92{fill:url(#linear-gradient-84);}.cls-93{fill:url(#linear-gradient-85);}</style><linearGradient id="linear-gradient" x1="3593.27" y1="4041.35" x2="1124.87" y2="975.75" gradientUnits="userSpaceOnUse"><stop offset="0" stop-color="#dae3fe"/><stop offset="1" stop-color="#e9effd"/></linearGradient><linearGradient id="linear-gradient-2" x1="1825.53" y1="859.62" x2="2508.84" y2="1579.96" gradientTransform="matrix(-1, -0.03, -0.03, 1, 2954.93, 2.41)" gradientUnits="userSpaceOnUse"><stop offset="0" stop-color="#ff928e"/><stop offset="1" stop-color="#fe7062"/></linearGradient><linearGradient id="linear-gradient-3" x1="-410.21" y1="359.26" x2="-686.73" y2="1370.9" gradientTransform="translate(1132.39 -0.29) rotate(-1.76)" xlink:href="#linear-gradient-2"/><linearGradient id="linear-gradient-4" x1="-132.14" y1="864.9" x2="-195.08" y2="1251.57" gradientTransform="translate(674.34 -455.29) rotate(-1.76)" xlink:href="#linear-gradient-2"/><linearGradient id="linear-gradient-5" x1="2011.5" y1="792.64" x2="1932.81" y2="1354.68" gradientTransform="matrix(-1, -0.03, -0.03, 1, 2496.88, -452.59)" xlink:href="#linear-gradient-2"/><linearGradient id="linear-gradient-6" x1="2068.22" y1="800.58" x2="1989.54" y2="1362.62" gradientTransform="matrix(-1, -0.03, -0.03, 1, 2496.88, -452.59)" xlink:href="#linear-gradient-2"/><linearGradient id="linear-gradient-7" x1="2125.13" y1="808.55" x2="2046.44" y2="1370.59" gradientTransform="matrix(-1, -0.03, -0.03, 1, 2496.88, -452.59)" xlink:href="#linear-gradient-2"/><linearGradient id="linear-gradient-8" x1="2182.21" y1="816.54" x2="2103.53" y2="1378.58" gradientTransform="matrix(-1, -0.03, -0.03, 1, 2496.88, -452.59)" xlink:href="#linear-gradient-2"/><linearGradient id="linear-gradient-9" x1="3162.87" y1="1094.35" x2="2449.72" y2="993.19" gradientUnits="userSpaceOnUse"><stop offset="0" stop-color="#4f52ff"/><stop offset="1" stop-color="#4042e2"/></linearGradient><linearGradient id="linear-gradient-10" x1="-1552.64" y1="1411.75" x2="1473.17" y2="1361.32" gradientTransform="matrix(-1, 0, 0, 1, 1125.19, -455)" xlink:href="#linear-gradient-9"/><linearGradient id="linear-gradient-11" x1="2821.8" y1="-167.23" x2="2589.14" y2="14.85" xlink:href="#linear-gradient-9"/><linearGradient id="linear-gradient-12" x1="2857.57" y1="-8.72" x2="2599.62" y2="234.05" xlink:href="#linear-gradient-9"/><linearGradient id="linear-gradient-13" x1="2735.54" y1="-138.39" x2="2477.59" y2="104.39" xlink:href="#linear-gradient-9"/><linearGradient id="linear-gradient-14" x1="971.11" y1="2742.36" x2="1518.7" y2="1974.86" gradientTransform="matrix(-1, -0.06, -0.06, 1, 3007.48, 58.86)" gradientUnits="userSpaceOnUse"><stop offset="0" stop-color="#2b3582"/><stop offset="0.23" stop-color="#252a70"/><stop offset="0.73" stop-color="#19164f"/><stop offset="1" stop-color="#150e42"/></linearGradient><linearGradient id="linear-gradient-15" x1="772.92" y1="3072.01" x2="801.69" y2="2093.86" gradientTransform="matrix(-1, -0.06, -0.06, 1, 3007.48, 58.86)" gradientUnits="userSpaceOnUse"><stop offset="0" stop-color="#09005d"/><stop offset="1" stop-color="#1a0f91"/></linearGradient><linearGradient id="linear-gradient-16" x1="2078.78" y1="884.71" x2="2031.57" y2="979.13" gradientTransform="matrix(1, 0, 0, 1, 0, 0)" xlink:href="#linear-gradient-2"/><linearGradient id="linear-gradient-17" x1="1425.81" y1="1807.64" x2="1847.67" y2="1807.64" gradientTransform="matrix(-1, -0.06, -0.06, 1, 3007.48, 58.86)" gradientUnits="userSpaceOnUse"><stop offset="0" stop-color="#febbba"/><stop offset="1" stop-color="#ff928e"/></linearGradient><linearGradient id="linear-gradient-18" x1="2366.91" y1="1028.78" x2="2319.7" y2="1123.19" gradientTransform="matrix(1, 0, 0, 1, 0, 0)" xlink:href="#linear-gradient-2"/><linearGradient id="linear-gradient-19" x1="1023.3" y1="1185.03" x2="1303.21" y2="1185.03" xlink:href="#linear-gradient-17"/><linearGradient id="linear-gradient-20" x1="2637.47" y1="1164.06" x2="2590.26" y2="1258.47" gradientTransform="matrix(1, 0, 0, 1, 0, 0)" xlink:href="#linear-gradient-2"/><linearGradient id="linear-gradient-21" x1="414.85" y1="1544.56" x2="1242.74" y2="1497.13" gradientTransform="matrix(-1, -0.06, -0.06, 1, 3007.48, 58.86)" gradientUnits="userSpaceOnUse"><stop offset="0" stop-color="#e1473d"/><stop offset="1" stop-color="#e9605a"/></linearGradient><linearGradient id="linear-gradient-22" x1="2582.38" y1="1830.4" x2="1591.05" y2="1921.44" gradientTransform="matrix(1, 0, 0, 1, 0, 0)" xlink:href="#linear-gradient-17"/><linearGradient id="linear-gradient-23" x1="1887.7" y1="-495.08" x2="1537.76" y2="-32.14" gradientTransform="matrix(-0.95, -0.3, -0.3, 0.95, 3278.61, 1896.82)" xlink:href="#linear-gradient-17"/><linearGradient id="linear-gradient-24" x1="1620.44" y1="-383.4" x2="2038.45" y2="-383.4" gradientTransform="matrix(-0.95, -0.3, -0.3, 0.95, 3278.61, 1896.82)" xlink:href="#linear-gradient-15"/><linearGradient id="linear-gradient-25" x1="1375.18" y1="-128.46" x2="1655.86" y2="-416.42" gradientTransform="matrix(-0.95, -0.3, -0.3, 0.95, 3278.61, 1896.82)" xlink:href="#linear-gradient-17"/><linearGradient id="linear-gradient-26" x1="1146.27" y1="1187.13" x2="1306.56" y2="1078.46" gradientTransform="matrix(-0.99, -0.12, -0.12, 0.99, 3114.35, 138.11)" xlink:href="#linear-gradient-9"/><linearGradient id="linear-gradient-27" x1="1162.97" y1="691.75" x2="1214.67" y2="691.75" xlink:href="#linear-gradient-9"/><linearGradient id="linear-gradient-28" x1="1648.89" y1="797.65" x2="514.42" y2="985.08" gradientTransform="matrix(-0.99, -0.12, -0.12, 0.99, 3114.35, 138.11)" xlink:href="#linear-gradient-9"/><linearGradient id="linear-gradient-29" x1="2094.52" y1="785.03" x2="2005.16" y2="857.53" xlink:href="#linear-gradient-9"/><linearGradient id="linear-gradient-30" x1="1967.38" y1="919.31" x2="2201.74" y2="779.37" xlink:href="#linear-gradient-9"/><linearGradient id="linear-gradient-31" x1="-52.77" y1="2105.94" x2="476.71" y2="1844.73" gradientTransform="matrix(-1, 0, 0, 1, 1583.23, 0)" xlink:href="#linear-gradient-15"/><linearGradient id="linear-gradient-32" x1="939.16" y1="1099.97" x2="1278.04" y2="1853.59" gradientTransform="matrix(1, 0, 0, 1, 0, 0)" xlink:href="#linear-gradient-15"/><linearGradient id="linear-gradient-33" x1="1352.57" y1="1529.88" x2="2060.71" y2="1172.44" gradientTransform="matrix(1, 0, 0, 1, 0, 0)" xlink:href="#linear-gradient-15"/><linearGradient id="linear-gradient-34" x1="658.57" y1="1916.97" x2="28.99" y2="1924.06" gradientTransform="matrix(-1, 0, 0, 1, 1583.23, 0)" xlink:href="#linear-gradient-15"/><linearGradient id="linear-gradient-35" x1="501.88" y1="1962.06" x2="780.35" y2="1590.77" gradientTransform="matrix(-1, 0, 0, 1, 1583.23, 0)" xlink:href="#linear-gradient-15"/><linearGradient id="linear-gradient-36" x1="1234.13" y1="1555.61" x2="1895.05" y2="1056.54" gradientTransform="matrix(1, 0, 0, 1, 0, 0)" xlink:href="#linear-gradient-15"/><linearGradient id="linear-gradient-37" x1="2560.99" y1="502.55" x2="1859.6" y2="1048.83" gradientTransform="matrix(1, 0, 0, 1, 0, 0)" xlink:href="#linear-gradient-15"/><linearGradient id="linear-gradient-38" x1="-340.13" y1="1891.42" x2="-156.2" y2="1891.42" gradientTransform="matrix(-1, 0, 0, 1, 1583.23, 0)" xlink:href="#linear-gradient-15"/><linearGradient id="linear-gradient-39" x1="2014.26" y1="85.89" x2="1716.24" y2="635.57" gradientTransform="matrix(0.51, 0.86, -0.86, 0.51, 1579.41, -1141.07)" xlink:href="#linear-gradient-2"/><linearGradient id="linear-gradient-40" x1="3468.99" y1="1217.32" x2="3585.64" y2="1217.32" gradientTransform="matrix(0.9, 0.44, -0.44, 0.9, 276.95, -760.33)" xlink:href="#linear-gradient-17"/><linearGradient id="linear-gradient-41" x1="2679.43" y1="1179.56" x2="3131.29" y2="815.38" gradientTransform="matrix(1, 0, 0, 1, 0, 0)" xlink:href="#linear-gradient-2"/><linearGradient id="linear-gradient-42" x1="3727.34" y1="2213.52" x2="3922.23" y2="2213.52" gradientTransform="translate(-748.8)" xlink:href="#linear-gradient-17"/><linearGradient id="linear-gradient-43" x1="3734.27" y1="2937.3" x2="3596.01" y2="3372.29" gradientTransform="translate(-748.8)" xlink:href="#linear-gradient-9"/><linearGradient id="linear-gradient-44" x1="3546.88" y1="2877.74" x2="3408.63" y2="3312.73" gradientTransform="translate(-748.8)" xlink:href="#linear-gradient-9"/><linearGradient id="linear-gradient-45" x1="3609.08" y1="2228.01" x2="3721.93" y2="2228.01" gradientTransform="translate(-748.8)" xlink:href="#linear-gradient-17"/><linearGradient id="linear-gradient-46" x1="3365.96" y1="1381.28" x2="3586.9" y2="1381.28" gradientTransform="translate(-748.8)" xlink:href="#linear-gradient-17"/><linearGradient id="linear-gradient-47" x1="2974.66" y1="1516.43" x2="3381.12" y2="930.38" xlink:href="#linear-gradient-9"/><linearGradient id="linear-gradient-48" x1="3509.43" y1="1718.17" x2="3871.37" y2="2126.35" gradientTransform="translate(-748.8)" xlink:href="#linear-gradient-15"/><linearGradient id="linear-gradient-49" x1="3643.29" y1="1489.75" x2="3712.35" y2="1489.75" gradientTransform="translate(-748.8)" xlink:href="#linear-gradient-17"/><linearGradient id="linear-gradient-50" x1="3753.05" y1="1400.5" x2="4255.74" y2="1434.68" gradientTransform="translate(-748.8)" xlink:href="#linear-gradient-17"/><linearGradient id="linear-gradient-51" x1="3835.68" y1="1370.2" x2="3658.73" y2="1724.09" gradientTransform="translate(-748.8)" xlink:href="#linear-gradient-15"/><linearGradient id="linear-gradient-52" x1="2682.82" y1="2849.7" x2="2694.71" y2="2849.7" gradientTransform="matrix(1, 0, 0, 1, 0, 0)" xlink:href="#linear-gradient-15"/><linearGradient id="linear-gradient-53" x1="2941.8" y1="2849.7" x2="2953.7" y2="2849.7" gradientTransform="matrix(1, 0, 0, 1, 0, 0)" xlink:href="#linear-gradient-15"/><linearGradient id="linear-gradient-54" x1="-6289.23" y1="2940.23" x2="-6204.94" y2="2940.23" gradientTransform="translate(6967.52 595.72) rotate(2.91)" xlink:href="#linear-gradient-15"/><linearGradient id="linear-gradient-55" x1="-6317.41" y1="2463.71" x2="-6283.23" y2="2463.71" gradientTransform="translate(6544.46 24.5) rotate(-6.43)" xlink:href="#linear-gradient-17"/><linearGradient id="linear-gradient-56" x1="-6082.07" y1="2698.26" x2="-5949.82" y2="2698.26" gradientTransform="translate(6875.45 734.04) rotate(2)" xlink:href="#linear-gradient-15"/><linearGradient id="linear-gradient-57" x1="-6022.94" y1="2916.48" x2="-5988.94" y2="2916.48" gradientTransform="translate(7076.74 1097.94) rotate(7.83)" xlink:href="#linear-gradient-17"/><linearGradient id="linear-gradient-58" x1="-6340.91" y1="2166.77" x2="-6109.12" y2="2166.77" gradientTransform="translate(6544.46 24.5) rotate(-6.43)" xlink:href="#linear-gradient-15"/><linearGradient id="linear-gradient-59" x1="1357.99" y1="1826.29" x2="1130.39" y2="1988.14" xlink:href="#linear-gradient-9"/><linearGradient id="linear-gradient-60" x1="-5919.5" y1="1472.83" x2="-5793.16" y2="1472.83" gradientTransform="translate(6544.46 24.5) rotate(-6.43)" xlink:href="#linear-gradient-17"/><linearGradient id="linear-gradient-61" x1="756.74" y1="1808.19" x2="102.47" y2="3143.34" gradientTransform="matrix(-1, 0, 0, 1, 1840.01, 0)" xlink:href="#linear-gradient-2"/><linearGradient id="linear-gradient-62" x1="803.82" y1="2292.72" x2="110.89" y2="3132.32" xlink:href="#linear-gradient-9"/><linearGradient id="linear-gradient-63" x1="-5633.4" y1="1500.38" x2="-5906.41" y2="1840.03" gradientTransform="translate(6544.46 24.5) rotate(-6.43)" xlink:href="#linear-gradient-17"/><linearGradient id="linear-gradient-64" x1="-5581.64" y1="1541.97" x2="-5854.65" y2="1881.63" gradientTransform="translate(6544.46 24.5) rotate(-6.43)" xlink:href="#linear-gradient-17"/><linearGradient id="linear-gradient-65" x1="-5940.54" y1="1295.12" x2="-6204.95" y2="1780.94" gradientTransform="translate(6544.46 24.5) rotate(-6.43)" xlink:href="#linear-gradient-17"/><linearGradient id="linear-gradient-66" x1="-4940.28" y1="-432" x2="-4978.42" y2="-557.79" gradientTransform="matrix(0.75, -0.67, 0.67, 0.75, 4739.9, -803.17)" xlink:href="#linear-gradient-17"/><linearGradient id="linear-gradient-67" x1="-4974.69" y1="-651.17" x2="-4942.79" y2="-469.2" gradientTransform="matrix(0.75, -0.67, 0.67, 0.75, 4739.9, -803.17)" xlink:href="#linear-gradient-15"/><linearGradient id="linear-gradient-68" x1="-4979.27" y1="-432.58" x2="-5013.58" y2="-545.76" gradientTransform="matrix(0.75, -0.67, 0.67, 0.75, 4739.9, -803.17)" xlink:href="#linear-gradient-17"/><linearGradient id="linear-gradient-69" x1="1640.24" y1="2006.89" x2="1668.33" y2="2012.62" gradientTransform="translate(120.28)" xlink:href="#linear-gradient-17"/><linearGradient id="linear-gradient-70" x1="3566.98" y1="2359.2" x2="3702.52" y2="2359.2" gradientTransform="translate(-1249.71 734.04) rotate(2)" xlink:href="#linear-gradient-15"/><linearGradient id="linear-gradient-71" x1="3541.8" y1="1598.13" x2="3576.64" y2="1598.13" gradientTransform="translate(-1048.43 1097.94) rotate(7.83)" xlink:href="#linear-gradient-17"/><linearGradient id="linear-gradient-72" x1="-343.95" y1="-3602.81" x2="-208.4" y2="-3602.81" gradientTransform="matrix(0.16, 0.99, -0.99, 0.16, -1941.78, 3878.92)" xlink:href="#linear-gradient-15"/><linearGradient id="linear-gradient-73" x1="-953.88" y1="-3935.6" x2="-919.03" y2="-3935.6" gradientTransform="matrix(0.05, 1, -1, 0.05, -2260.32, 4145.17)" xlink:href="#linear-gradient-17"/><linearGradient id="linear-gradient-74" x1="872.19" y1="2732.71" x2="929.51" y2="2744.4" gradientTransform="matrix(-0.99, 0.12, 0.12, 0.99, 2856.56, -741.67)" xlink:href="#linear-gradient-17"/><linearGradient id="linear-gradient-75" x1="8734.35" y1="731.89" x2="9056.61" y2="639.82" gradientTransform="matrix(-1, 0, 0, 1, 3100.44, 0)" xlink:href="#linear-gradient-15"/><linearGradient id="linear-gradient-76" x1="796.86" y1="2247.79" x2="1302.06" y2="2350.84" gradientTransform="matrix(-1, 0, 0, 1, 3100.44, 0)" xlink:href="#linear-gradient-9"/><linearGradient id="linear-gradient-77" x1="3218.2" y1="3328.9" x2="2813.55" y2="3173.78" gradientTransform="matrix(1, 0, 0, 1, 0, 0)" xlink:href="#linear-gradient-15"/><linearGradient id="linear-gradient-78" x1="3407.95" y1="2468.17" x2="3155.12" y2="2932.72" gradientTransform="translate(-1580.71 24.5) rotate(-6.43)" xlink:href="#linear-gradient-17"/><linearGradient id="linear-gradient-79" x1="1823.79" y1="6317.24" x2="1702.22" y2="6478.06" gradientTransform="matrix(0.86, -0.77, 0.78, 0.88, -4520.4, -1965.21)" xlink:href="#linear-gradient-17"/><linearGradient id="linear-gradient-80" x1="1799.92" y1="2203.46" x2="1924.49" y2="2203.46" gradientTransform="translate(120.28)" xlink:href="#linear-gradient-15"/><linearGradient id="linear-gradient-81" x1="1881.38" y1="6469.99" x2="1983.79" y2="6364.93" gradientTransform="translate(-3751.48 -1168.77) rotate(-41.65)" xlink:href="#linear-gradient-17"/><linearGradient id="linear-gradient-82" x1="-6895.7" y1="6731.69" x2="-6421.58" y2="6359.6" gradientTransform="matrix(-1, 0, 0, 1, 1045.42, -455)" xlink:href="#linear-gradient-9"/><linearGradient id="linear-gradient-83" x1="-6374.65" y1="6675.19" x2="-5900.53" y2="6303.1" gradientTransform="matrix(-1, 0, 0, 1, 1045.42, -455)" xlink:href="#linear-gradient-9"/><linearGradient id="linear-gradient-84" x1="1334.67" y1="2018.18" x2="1368.79" y2="2025.14" gradientTransform="matrix(-1, 0, 0, 1, 3100.44, 0)" xlink:href="#linear-gradient-17"/><linearGradient id="linear-gradient-85" x1="782.24" y1="2074.67" x2="816.36" y2="2081.63" gradientTransform="matrix(-1, 0, 0, 1, 3100.44, 0)" xlink:href="#linear-gradient-17"/></defs><title>home</title><g class="cls-1"><g id="Illustration"><path class="cls-2" d="M2922.12,2826.89c-57.13,59.39-111.19,97.69-153.9,127.95-502.05,355.69-1096.11,252-1222.37,226.69-186.44-37.39-546.82-109.66-807.37-412.21-394.19-457.72-332.81-1178.86-27-1654.88,55.93-87.07,351.36-570.35,951.82-647.86,363.39-46.9,787,47.7,1093.75,301.46C3400.91,1300.72,3355.07,2376.83,2922.12,2826.89Z" transform="translate(-458.05 -455)"/><path class="cls-3" d="M2948.9,480.39c3.9-14.17-14.31-24.55-26.32-15.09-121.93,96.09-418.13,387.06-377.11,921.57,51.46,670.62-111.24,906.87-305.42,1046.56,0,0,259.43-57.86,433.62-297.16C3101.35,1548.72,2879.55,732.28,2948.9,480.39Z" transform="translate(-458.05 -455)"/><path class="cls-4" d="M2849,684.45c-18.58,73.52-35.58,147.35-49.65,221.65q-21.74,111.32-36.09,223.64c-9.23,74.86-16.94,149.87-21.22,225.07-4.64,75.18-5.79,150.46-6.66,226-1.33,75.54-2.2,151.64-11.47,227.9-9.17,76.1-28.28,152.41-61.84,223.21-8.39,17.65-17.15,35.22-26.94,52.13-9.46,17.09-19.74,33.8-30.33,50.33a825,825,0,0,1-71.33,94.61c-52.56,59.74-114.87,112-182.76,155.54-7.15,4.58-16.94,2.92-21.87-3.72a13.93,13.93,0,0,1,3.62-20.05l0,0c16.19-11,32.22-22.2,47.66-34,7.82-5.79,15.36-11.89,23-17.85,7.4-6.23,15.06-12.19,22.24-18.62a795.56,795.56,0,0,0,81.39-81.29c50.15-57.47,91.31-122.19,123.5-189.78A699.86,699.86,0,0,0,2669,1914.47a780.18,780.18,0,0,0,21.83-109.34c9.61-74,11.14-149.3,13.06-224.83s4.6-151.44,10.55-227.11q4.29-56.76,10.78-113.34c2-18.87,4.48-37.69,6.88-56.52q3.89-28.21,8.17-56.36,17.45-112.57,42.34-223.89c17-74.09,36.11-147.73,58.24-220.57a4.27,4.27,0,0,1,5.21-2.71A3.91,3.91,0,0,1,2849,684.45Z" transform="translate(-458.05 -455)"/><path class="cls-5" d="M2606.55,2449.45c6.34,26.19,37.36,37.39,59.17,21.58,120.38-87.23,438.43-364.64,466.82-877.05,24-432.71,78.1-665.06,110-768.84,6.74-21.94-18.45-39.74-36.91-26.09C3002,949.68,2377,1500.57,2606.55,2449.45Z" transform="translate(-458.05 -455)"/><path class="cls-4" d="M2642.78,2453.67a10.53,10.53,0,0,0,16-3c3.17-5.77,318.19-583.85,378.7-1184a10.52,10.52,0,1,0-20.94-2.11c-60.07,595.78-373,1170.23-376.2,1176A10.52,10.52,0,0,0,2642.78,2453.67Z" transform="translate(-458.05 -455)"/><path class="cls-6" d="M625.88,1061.36l587.37,3.24a28,28,0,0,0,28.11-27.21l1.9-70.6a28,28,0,0,0-27.7-28.72l-587.32-5.28A28,28,0,0,0,600,960l-2,72.64A28,28,0,0,0,625.88,1061.36Z" transform="translate(-458.05 -455)"/><polygon class="cls-4" points="759.95 586.48 762.11 506.26 166.15 501.28 163.95 582.81 759.95 586.48"/><path class="cls-7" d="M501.94,1060.61l172.1,0.95a32.74,32.74,0,0,0,30-46.31L649.39,895.34a32.74,32.74,0,0,0-29.45-19.16L505.7,875a32.74,32.74,0,0,0-33.07,31.85L469.4,1027A32.74,32.74,0,0,0,501.94,1060.61Z" transform="translate(-458.05 -455)"/><polygon class="cls-4" points="229.98 583.15 166.89 444.76 39.04 443.5 35.31 581.96 229.98 583.15"/><polygon class="cls-8" points="701.23 573.95 743.2 574.22 744.71 518.27 702.74 517.93 701.23 573.95"/><polygon class="cls-8" points="644.19 573.58 686.3 573.85 687.81 517.81 645.71 517.48 644.19 573.58"/><polygon class="cls-8" points="586.98 573.21 629.22 573.48 630.73 517.36 588.5 517.02 586.98 573.21"/><polygon class="cls-9" points="529.59 572.83 571.96 573.11 573.47 516.9 531.11 516.56 529.59 572.83"/><polygon class="cls-10" points="472.02 572.46 514.52 572.74 516.04 516.43 473.54 516.09 472.02 572.46"/><polygon class="cls-11" points="414.26 572.09 456.9 572.36 458.42 515.97 415.79 515.63 414.26 572.09"/><polygon class="cls-12" points="356.33 571.71 399.1 571.99 400.62 515.51 357.85 515.17 356.33 571.71"/><polygon class="cls-13" points="298.21 571.33 341.12 571.61 342.64 515.04 299.74 514.7 298.21 571.33"/><polygon class="cls-14" points="2175.38 423.37 2267.89 416.84 2383.28 754.64 2232.01 1512.88 2088.47 1491.71 2175.38 423.37"/><polygon class="cls-15" points="1623.47 1459.5 1806.22 766.69 1915.32 391.61 2175.38 423.37 2295.04 772.18 2130.75 1491.61 1623.02 1491.61 1623.47 1459.5"/><polygon class="cls-16" points="2267.89 416.84 2035.05 383.13 1915.32 391.61 2175.38 423.37 2267.89 416.84"/><polygon class="cls-17" points="2215.56 754.99 2088.22 714.99 2088.22 555.92 2151.89 561.57 2215.56 754.99"/><polygon class="cls-18" points="1983.12 535.92 1924.91 521.21 1872.01 696.8 1957.96 696.8 1983.12 535.92"/><path class="cls-19" d="M2039.21,2126S1606,2176.68,1412.5,2336.56s129.6,721.82,129.6,721.82,57.86,2.84,131.28-53.37c0,0-186.79-419.53.19-528.53,210.21-122.55,445.6-139.76,445.6-139.76l-76.52-197.37Z" transform="translate(-458.05 -455)"/><path class="cls-20" d="M2459.4,2020s81.22,260.1-18.36,332.33S2109.29,2499.27,2050,2650.82,1932.85,3025.08,1811.65,3125c0,0-120.14,34-148.69,0,0,0,85-418,134.68-530.5,43-97.44,106.23-238,216.6-312.44,31.59-21.31,28.32-58,16.22-94.13l-22-65.8Z" transform="translate(-458.05 -455)"/><path class="cls-21" d="M1476.49,1765.38c159.26,18.46,123.58-239.58,121.26-249.89l233.06,184.7s-20.38,135.81-226,196.29c-52,15.3-98.69,13.52-139.42,2.38A221,221,0,0,0,1476.49,1765.38Z" transform="translate(-458.05 -455)"/><path class="cls-22" d="M1171.75,1671.47c61.83-38.13,127,7,127,7,76.74,56.47,134.42,81.87,177.73,86.89a221,221,0,0,1-11.08,133.48c-88.13-24.1-148.38-92.18-174.28-126.83a28.84,28.84,0,0,0-39.62-6.56c-12.94,9.1-25.72,21.84-24.32,36.08,2.77,28.06-30,35.13-31.89,24.9s14.91-69.31,14.91-69.31-68.17,61.37-94.76,84.93-56.91-3.14-56.91-3.14S1109.92,1709.6,1171.75,1671.47Z" transform="translate(-458.05 -455)"/><path class="cls-23" d="M2257.5,1156.49s-227.33-105.92-679.71,227.36c0,0-40.27,72.81-4.53,141.56s393.46,413.92,435.14,596.68c0,0,219.77,85.08,460.73-74.57C2469.15,2047.52,2476.39,1545.69,2257.5,1156.49Z" transform="translate(-458.05 -455)"/><path class="cls-24" d="M1802.52,1048l106.78,145.06a45.62,45.62,0,0,1,3.3,49.3c-17.67,31.53-58,76.62-141.2,65.47a70.35,70.35,0,0,1-55.57-42.59l-70.88-169.84Z" transform="translate(-458.05 -455)"/><path class="cls-25" d="M2404.66,1760.61c33.06-108.42-226.76-368.56-226.76-368.56l79.61-235.57s568.56,425.56,400.68,733.25c-24.07,44.11-54.46,74.26-88.84,93.64C2528.88,1852.81,2456.38,1790,2404.66,1760.61Z" transform="translate(-458.05 -455)"/><path class="cls-26" d="M2405.74,1744.62a6.47,6.47,0,0,0,6.54-4.57c33.81-110.85-217.66-364.27-228.37-375a6.47,6.47,0,1,0-9.16,9.14c2.57,2.57,256.72,258.61,225.16,362.1A6.46,6.46,0,0,0,2405.74,1744.62Z" transform="translate(-458.05 -455)"/><path class="cls-27" d="M1991.15,1728.28s317.15,143.74,401.49,53.46a53.2,53.2,0,0,0,12-21.13c51.72,29.34,124.22,92.2,164.68,222.77-176.48,99.5-458.47-86.11-534.49-140.44a58.91,58.91,0,0,0-43.09-10.39c-30.73,4.62-83.74,11-111.81,5.06-41.07-8.67-108.62,134.14-173.26,85.37C1706.69,1923,1778.2,1672.21,1991.15,1728.28Z" transform="translate(-458.05 -455)"/><path class="cls-28" d="M1564.76,830.49c-1.4,4.4,9.82,309.22,9.82,309.22l173.91-10.11,32.29-290.49S1588.16,756.88,1564.76,830.49Z" transform="translate(-458.05 -455)"/><path class="cls-29" d="M1732.43,897l-5,154.25a21.27,21.27,0,0,1-1,5.78c-3.65,11.55-19.14,50.36-57.89,32.1-35.16-16.57-67.49-31.18-92-27.91a21.54,21.54,0,0,0-18.7,22.15c1,27.7,4.49,90.06,15.77,143.78a21.5,21.5,0,0,0,23.67,16.82c33.33-4,103.38-14.37,157.78-35.93a21.56,21.56,0,0,0,13.54-17.42c4.72-38.37,19.49-154.92,28.63-186.77,8.58-29.89,49-41.94,66.34-45.78a21.18,21.18,0,0,0,13.57-9.75c10.65-17.61,28.27-59.52-23.75-86.52a21.59,21.59,0,0,1-8.91-29.78c11.91-21.32,21.09-55.35-18.29-81.48-40-26.55-76.14-8.87-96.68,7a21.57,21.57,0,0,1-27.64-1.3c-4.46-4-10.7-6.07-19.25-2.53-11.52,4.77-24.62-2-28.17-13.91-6.83-23-24.15-49.24-67.68-49-77.25.39-99.57,82.21-87.85,134.28s95.44,46.87,140,29c33.86-13.59,70.51,12.63,86.13,26A21.38,21.38,0,0,1,1732.43,897Z" transform="translate(-458.05 -455)"/><path class="cls-30" d="M1794.81,1060s-16.52-91.59,18.72-107.5,80.4,2.88,59.66,63.81C1847.38,1092.09,1794.81,1060,1794.81,1060Z" transform="translate(-458.05 -455)"/><path class="cls-31" d="M1657.8,1152.11c106.87,2.9,163.44-110.19,164-111.33l-7.32-3.58c-0.54,1.09-54.88,109.53-156.46,106.77Z" transform="translate(-458.05 -455)"/><rect class="cls-32" x="1162.97" y="682.01" width="51.7" height="19.48" rx="2.89" ry="2.89"/><path class="cls-33" d="M1817,933.62S1770.29,765.39,1663.44,753c0,0,29.09-14.91,61.3-.93s116.42,93.76,119,184.78C1822.68,944.74,1817,933.62,1817,933.62Z" transform="translate(-458.05 -455)"/><path class="cls-34" d="M1827.68,908.77c59.11,9.05,55.49,83.42,55.49,83.42,6.81,53.52-7.58,80.9-27.06,94.56a46.31,46.31,0,0,1-72.51-32.3c-1.79-14.57-3.7-28.41-5-33.29C1775.38,1009.34,1768.57,899.72,1827.68,908.77Z" transform="translate(-458.05 -455)"/><path class="cls-35" d="M1823.21,927.75A26.64,26.64,0,0,1,1853,942c38.9,79.35-1.51,134.15-22.54,136.26-22.17,2.23-26.88-104.72-23.49-132.35C1808.38,934.35,1815.46,929.49,1823.21,927.75Z" transform="translate(-458.05 -455)"/><path class="cls-5" d="M458,1961.46c0,18.65,16.06,34.28,35.88,34.28H2992.17c19.82,0,35.88-15.63,35.88-34.28h0c0-18.65-16.06-34.28-35.88-34.28H493.93c-19.82,0-35.88,15.63-35.88,34.28h0Z" transform="translate(-458.05 -455)"/><path class="cls-36" d="M493.93,1995.74C562.1,2366,580.37,2732.37,648.55,3101c4,21.5,23.38,39.71,42.33,39.71h2072.9c18.95,0,39.82-18.21,43.85-39.71,68.18-368.63,136.4-735,204.58-1105.26H493.93Z" transform="translate(-458.05 -455)"/><path class="cls-5" d="M2168.5,1995.74c27.23,377.08-13,767.88,14.21,1145h581.07c18.95,0,39.82-18.21,43.85-39.71,68.18-368.63,136.4-735,204.58-1105.26H2168.5Z" transform="translate(-458.05 -455)"/><path class="cls-36" d="M2251.34,1961.46c0,18.65,5,34.28,11.26,34.28h783.75c6.22,0,11.26-15.63,11.26-34.28h0c0-18.65-5-34.28-11.26-34.28H2262.59c-6.22,0-11.26,15.63-11.26,34.28h0Z" transform="translate(-458.05 -455)"/><path class="cls-37" d="M903.19,1892.9H1613.1c15.43,0,22.46,18.8,22.46,34.24v6.9h-761v-6.9C874.53,1911.7,887.76,1892.9,903.19,1892.9Z" transform="translate(-458.05 -455)"/><path class="cls-38" d="M700.49,1176.71l91,623.61c3,20.37,22.11,36.89,42.8,36.89l681.52,0c21.77,0,36.25-16.92,32.35-37.86L1428.78,1159c-3.63-19.48-23.46-34.84-44.31-34.31L731.35,1141.4C711.5,1141.9,697.72,1157.72,700.49,1176.71Z" transform="translate(-458.05 -455)"/><path class="cls-39" d="M1368.06,1136.37l125.81,686.29c1.57,8.55,11.64,15.53,20.48,15.53,21.77,0,37.88-17.14,34-38.19l-119.49-640.86c-3.65-19.59-23.5-35-44.34-34.5l-11.46.29A11.47,11.47,0,0,0,1368.06,1136.37Z" transform="translate(-458.05 -455)"/><path class="cls-36" d="M811.5,1584.76a4,4,0,0,0,3.74-4.93l-65.11-369.48c-3-16.77,10.31-27.54,24.85-28.28l69.22-3.53a3.92,3.92,0,0,0,3.67-4.81,5.35,5.35,0,0,0-5.34-4.34l-69.18,3.55c-21.6,1.11-35.72,17.72-32.19,37.86l64.91,369.36A5.57,5.57,0,0,0,811.5,1584.76Z" transform="translate(-458.05 -455)"/><path class="cls-36" d="M1317.17,1782.41l95.9-.19c19.66,0,31.32-17.58,27.12-40.75L1414.36,1599a6,6,0,0,0-5.68-4.86,4,4,0,0,0-3.91,4.94l25.74,142.44c3.16,17.48-5.12,30.71-19.24,30.74l-95.84.23a4,4,0,0,0-3.94,5A6.06,6.06,0,0,0,1317.17,1782.41Z" transform="translate(-458.05 -455)"/><path class="cls-40" d="M888.25,1936.29v8.23l169.6-3.63h239.77c5.78,0,10.46-2.52,10.46-8.3h0c0-22.5-15.84-39.69-38.38-39.69H931.23a70.25,70.25,0,0,0-11.24,1.67C902.2,1898.66,888.25,1916.69,888.25,1936.29Z" transform="translate(-458.05 -455)"/><path class="cls-41" d="M847.9,1935.67a40.6,40.6,0,0,1,40.91-40.48l34.2,0.14,135,0.62,169.24,1c22.5,0.1,40.67,16.33,40.62,38.83,0,4.45-3.64,5.11-8.09,5.11H856c-2.15,0-4.21,2.07-5.73.55s-2.37-2.12-2.36-4.27v-1.5Z" transform="translate(-458.05 -455)"/><path class="cls-42" d="M1170.74,1440.4c15.43,0,26,14.68,26,30.11V1892.9H977.37V1440.4h193.37Z" transform="translate(-458.05 -455)"/><path class="cls-43" d="M979.29,1440.4h158.15c15.43,0,25,14.68,25,30.11V1892.9H949.95V1470.51C949.95,1455.08,963.86,1440.4,979.29,1440.4Z" transform="translate(-458.05 -455)"/><path class="cls-44" d="M1922.85,1934H1739.43s41.65-89.49,117.85-85.06S1922.85,1934,1922.85,1934Z" transform="translate(-458.05 -455)"/><path class="cls-45" d="M2297.48,780.78l-9-73.1a17.41,17.41,0,0,0-9.23-13.31l-65.33-34a17.4,17.4,0,0,1,.68-31.21L2281.34,598a17.4,17.4,0,0,0,9.8-12.89l12.18-72.64a17.4,17.4,0,0,1,29.89-9l50.25,53.85a17.4,17.4,0,0,0,15.29,5.34l72.85-10.87a17.4,17.4,0,0,1,17.79,25.64l-35.68,64.44a17.4,17.4,0,0,0-.35,16.19L2486.2,724a17.4,17.4,0,0,1-18.89,24.85l-72.31-14a17.4,17.4,0,0,0-15.51,4.67l-52.55,51.61A17.4,17.4,0,0,1,2297.48,780.78Z" transform="translate(-458.05 -455)"/><path class="cls-46" d="M2304,598.68a34.11,34.11,0,0,0,3.75-10.82l8-47.44a13.19,13.19,0,0,1,22.64-6.82l32.82,35.17a34.24,34.24,0,0,0,30.08,10.5l47.58-7.1a13.18,13.18,0,0,1,13.48,19.43l-11.91,21.5-3.27-1.81L2459,589.8a9.44,9.44,0,0,0-9.66-13.92l-47.58,7.1a38,38,0,0,1-33.37-11.65l-32.82-35.17a9.44,9.44,0,0,0-16.22,4.88l-8,47.44a37.92,37.92,0,0,1-4.16,12Z" transform="translate(-458.05 -455)"/><path class="cls-46" d="M2239.05,652.2a13.21,13.21,0,0,1,5.81-18.62L2278.21,618l1.58,3.39L2246.45,637a9.44,9.44,0,0,0-.37,16.93l42.66,22.22a38.34,38.34,0,0,1,20.15,29l5.88,47.74a9.44,9.44,0,0,0,16,5.58l34.32-33.71a38,38,0,0,1,33.84-10.18l47.23,9.16a9.44,9.44,0,0,0,10.25-13.48l-21.46-43.06a37.75,37.75,0,0,1-3.88-14.19l3.73-.27a34,34,0,0,0,3.5,12.79l21.46,43.06a13.18,13.18,0,0,1-14.31,18.82l-47.23-9.16a34.22,34.22,0,0,0-30.5,9.18l-34.32,33.71a13.19,13.19,0,0,1-22.33-7.79l-5.88-47.74A34.54,34.54,0,0,0,2287,679.44l-42.66-22.22A13.18,13.18,0,0,1,2239.05,652.2Z" transform="translate(-458.05 -455)"/><rect class="cls-46" x="2437.94" y="616.71" width="14.56" height="3.74" transform="translate(261.16 2002.77) rotate(-61.01)"/><path class="cls-47" d="M2908.55,1831.46s-44.16,78,8.53,155.18L2879.63,2018s-46.27-72.75,10.24-180.58a14.14,14.14,0,0,0,1.13-10.08l-6-23.26a28.15,28.15,0,0,1,5.84-25.24l5.51-6.47a4.28,4.28,0,0,1,6.83.41l1,1.58a28.79,28.79,0,0,1,4.75,17l1.53,14.63c-0.28,7-.88,9.75,5.68,12.33l11.62,5.93Z" transform="translate(-458.05 -455)"/><path class="cls-48" d="M2678.8,1293.28l-13-105.81a25.19,25.19,0,0,0-13.37-19.26L2557.85,1119c-18.52-9.65-17.94-36.34,1-45.17l96.61-45.09a25.19,25.19,0,0,0,14.19-18.66l17.62-105.15c3.45-20.59,29-28.29,43.26-13l72.74,77.95a25.19,25.19,0,0,0,22.14,7.73l105.45-15.73c20.65-3.08,35.87,18.85,25.75,37.12l-51.65,93.27a25.19,25.19,0,0,0-.51,23.44L2952,1211c9.31,18.69-6.85,39.94-27.34,36L2820,1226.71a25.19,25.19,0,0,0-22.45,6.76l-76.06,74.71C2706.56,1322.81,2681.35,1314,2678.8,1293.28Z" transform="translate(-458.05 -455)"/><path class="cls-46" d="M2688.22,1029.71a49.37,49.37,0,0,0,5.43-15.66l11.51-68.67a19.09,19.09,0,0,1,32.77-9.87l47.51,50.9a49.55,49.55,0,0,0,43.54,15.2l68.87-10.28a19.08,19.08,0,0,1,19.51,28.12l-17.24,31.12-4.73-2.62,17.24-31.12a13.67,13.67,0,0,0-14-20.15L2829.78,1007a55,55,0,0,1-48.3-16.86L2734,939.22a13.67,13.67,0,0,0-23.47,7.07L2699,1014.95a54.89,54.89,0,0,1-6,17.36Z" transform="translate(-458.05 -455)"/><path class="cls-46" d="M2594.24,1107.18a19.13,19.13,0,0,1,8.41-27l48.27-22.53,2.29,4.91-48.27,22.53a13.67,13.67,0,0,0-.53,24.51l61.74,32.16a55.5,55.5,0,0,1,29.17,42l8.51,69.1A13.67,13.67,0,0,0,2727,1261l49.68-48.79a54.93,54.93,0,0,1,49-14.74l68.36,13.25a13.67,13.67,0,0,0,14.84-19.51l-31.06-62.33a54.65,54.65,0,0,1-5.62-20.54l5.4-.39a49.24,49.24,0,0,0,5.07,18.51l31.06,62.32a19.08,19.08,0,0,1-20.71,27.24l-68.36-13.25a49.53,49.53,0,0,0-44.15,13.29l-49.68,48.79a19.09,19.09,0,0,1-32.32-11.28l-8.51-69.1a50,50,0,0,0-26.3-37.89l-61.74-32.17A19.08,19.08,0,0,1,2594.24,1107.18Z" transform="translate(-458.05 -455)"/><rect class="cls-46" x="2882.11" y="1055.8" width="21.08" height="5.41" transform="translate(106.98 2620.94) rotate(-61.02)"/><path class="cls-49" d="M2978.54,2033.61s104.26,227.23,159,321.35c0,0,10.86,59.22,0,77.84l-9.26,4.11,43.21-1.29s3.84-79.66.84-84.11-9-4.16-9-4.16-18.53-146.79-72.19-178.12l-52-179.11Z" transform="translate(-458.05 -455)"/><path class="cls-50" d="M3109.78,2448.07c-0.07,1,33.74.57,52.11,0.23a14.61,14.61,0,0,0,14-11.52l13.87-72.86a13.1,13.1,0,0,0-10-15.22l-7.74-1.77s-11,15.15-7.57,29.41,6.57,51.21-2.21,55.51-34.05,5.06-34.05,5.06S3110.36,2438.69,3109.78,2448.07Z" transform="translate(-458.05 -455)"/><path class="cls-51" d="M2879.72,2449.39a3.81,3.81,0,0,0,1.93,7.13c30.73-.31,99.59-1.28,105.71-3.83,7.9-3.29-2.88-31.67-14.22-41.28l-62.64,20.44Z" transform="translate(-458.05 -455)"/><path class="cls-52" d="M2860.28,2019.12s67.37,325.93,86.43,389.5l-45.09,28.29s22.59-3.84,39.35-5.06,32.17-20.44,32.17-20.44l-5.4-8.61s-16.9-324.15-12.78-361Z" transform="translate(-458.05 -455)"/><path class="cls-53" d="M2693,1258.89s-9.29,169.54,145.07,256.18l-37.16,84.76s-139.75-84.53-134.58-315.07a26.79,26.79,0,0,0-6.56-18.05l-29.7-34.46a53.32,53.32,0,0,1-11.34-47.75l3.91-15.63a8.1,8.1,0,0,1,11.93-5l3.11,1.8a54.53,54.53,0,0,1,22.39,24.89l14.91,23.53c5.45,12.18,6.72,17.29,20,16.14l24.71,0.28Z" transform="translate(-458.05 -455)"/><path class="cls-54" d="M2832.73,1502.37c25.82,7.16,113.31,30.18,167.93,29.24l-33.53,189.24,2.67,30.86-109.33-.49s-30.78-71.48-55.06-107.12c-7-10.29-1.79-22.57,2.18-34.37l-5.46-3.64a14.87,14.87,0,0,1-5.89-17l26.63-81.46A8.13,8.13,0,0,1,2832.73,1502.37Z" transform="translate(-458.05 -455)"/><path class="cls-55" d="M2851.7,1735.06l2.15,18.7s-30.9,92.53,15.45,308.65c0,0,100.38,28.44,182.88-39.61,0,0-23.27-204-29.63-213.49-31.66-47.33-52.75-57.62-52.75-57.62l-1-20.43S2880.61,1747.23,2851.7,1735.06Z" transform="translate(-458.05 -455)"/><path class="cls-56" d="M2894.5,1517.62c-0.38-.51,22.83-70.07,22.83-70.07l33.25,3,13,78.92S2911.46,1540,2894.5,1517.62Z" transform="translate(-458.05 -455)"/><path class="cls-57" d="M2942.61,1337.84c-2.22,1.38-71,29.82-56.25,101.28a13.41,13.41,0,0,0,7.63,9.56c10.1,4.51,31.84,12.22,57.85,9.58,36.05-3.66,59.68-66.58,58.68-84.89S2964.58,1324.16,2942.61,1337.84Z" transform="translate(-458.05 -455)"/><path class="cls-58" d="M2963.56,1310.06c-1.81.24-39.77,13.46-20.95,41s25.89,43.7,17,55.78c-8.11,11-26.08,4.73-24.52,27.63a12.84,12.84,0,0,1-5.47,11.61c-16.94,11.46-58.25,46.75-17.32,97.07a12.81,12.81,0,0,1,1.45,14.34c-12,21.5-37.17,84.5,54,119.45,90.1,34.53,122.62-24.36,131.71-47.9a12.56,12.56,0,0,1,12.43-8c9.9,0.47,23.93-1.18,23.28-14.41-0.39-8-5.41-15.24-11.33-21a12.55,12.55,0,0,1,2.41-19.77,24.59,24.59,0,0,0,12.15-15.27c5.46-20.23-5.44-80.73-63.43-91-4.84-.86-9.9-5.39-10.61-10.25l0-.22a12.54,12.54,0,0,1,4.66-12.33c9.26-6.79,21.13-20.47,11.49-42.4-8.55-19.45-25-26-37.15-28.1a12.63,12.63,0,0,1-10.35-15.09C3037.09,1331.88,3033.5,1300.89,2963.56,1310.06Z" transform="translate(-458.05 -455)"/><path class="cls-59" d="M2688.76,3242.34a6.22,6.22,0,0,0,5.95-6.46V2463.53a6,6,0,1,0-11.9,0v772.35A6.22,6.22,0,0,0,2688.76,3242.34Z" transform="translate(-458.05 -455)"/><path class="cls-60" d="M2947.75,3242.34a6.22,6.22,0,0,0,5.95-6.46V2463.53a6,6,0,1,0-11.9,0v772.35A6.22,6.22,0,0,0,2947.75,3242.34Z" transform="translate(-458.05 -455)"/><path class="cls-36" d="M3246,3247.24a5.52,5.52,0,0,0,2.32-.52,6.68,6.68,0,0,0,3.15-8.48L2947.29,2461a5.79,5.79,0,0,0-7.8-3.42,6.68,6.68,0,0,0-3.15,8.48l304.18,777.24A6,6,0,0,0,3246,3247.24Z" transform="translate(-458.05 -455)"/><path class="cls-36" d="M3058.11,3247.24a5.52,5.52,0,0,0,2.33-.52,6.68,6.68,0,0,0,3.15-8.48L2759.4,2461a5.79,5.79,0,0,0-7.8-3.42,6.68,6.68,0,0,0-3.15,8.48l304.18,777.24A6,6,0,0,0,3058.11,3247.24Z" transform="translate(-458.05 -455)"/><rect class="cls-36" x="2671.15" y="2452.43" width="573.48" height="35.64" rx="2.06" ry="2.06" transform="translate(5457.73 4485.49) rotate(180)"/><path class="cls-36" d="M2799.88,2588.84h188.45a6.48,6.48,0,0,0,0-12.92H2799.88A6.48,6.48,0,0,0,2799.88,2588.84Z" transform="translate(-458.05 -455)"/><rect class="cls-36" x="2399.66" y="2267.91" width="188.45" height="12.92"/><rect class="cls-36" x="2455.64" y="2414.91" width="188.45" height="12.92"/><path class="cls-36" d="M2972.39,3029.83h188.45a6.48,6.48,0,0,0,0-12.92H2972.39A6.48,6.48,0,0,0,2972.39,3029.83Z" transform="translate(-458.05 -455)"/><path class="cls-36" d="M3029.14,3176.83h188.45a6.48,6.48,0,0,0,0-12.92H3029.14A6.48,6.48,0,0,0,3029.14,3176.83Z" transform="translate(-458.05 -455)"/><path class="cls-61" d="M550.62,3184.2s-10.1,14.27-14.55,55.43a6.73,6.73,0,0,0,6.32,7.46l73.16,3.71a4.32,4.32,0,0,0,4.39-5.47c-3.64-12.91-15-44.5-43.06-63.64Z" transform="translate(-458.05 -455)"/><path class="cls-62" d="M540.7,3161.82l8,34.06a6.54,6.54,0,0,0,6.31,5.07,57.9,57.9,0,0,0,15.38-1.88,10.73,10.73,0,0,0,7.6-11.57l-3.76-33.33Z" transform="translate(-458.05 -455)"/><path class="cls-63" d="M717.7,3186.73a102.3,102.3,0,0,0-15.51,51.2A12.94,12.94,0,0,0,714.75,3251l113.7,4a5.45,5.45,0,0,0,3.47-9.79c-21-15.86-62.29-45.56-92.49-57.72Z" transform="translate(-458.05 -455)"/><path class="cls-64" d="M714.86,3150.43l2.91,43.71a8.85,8.85,0,0,0,9.42,8.32,32,32,0,0,0,10.48-2.78,10.16,10.16,0,0,0,5.91-9.65l-2-52.74Z" transform="translate(-458.05 -455)"/><path class="cls-65" d="M488.5,2573.86s-27.5,30.36-29.59,63.4,79.29,557,79.29,557,31.11,1.64,45.77-9.68c0,0-19.85-343.75-14.56-424.29,0,0,114.32,345.51,142.15,407.13,0,0,29.82.26,38.67-6.4,0,0-71.22-456.55-104.91-535.35Z" transform="translate(-458.05 -455)"/><path class="cls-66" d="M566.89,2750.4a4.45,4.45,0,0,0,4.16-6.05l-18.58-48.29a4.47,4.47,0,0,0-2.19-2.39l-30-14.81a4.45,4.45,0,1,0-3.94,8l28.48,14,18,46.67A4.45,4.45,0,0,0,566.89,2750.4Z" transform="translate(-458.05 -455)"/><path class="cls-67" d="M755.53,2235.71c-129.75,3.82-160.34,34.21-160.34,34.21L668,2360.48s126-16.74,208.66-96.69c-19-16.33-33-35.16-42.34-50A171.28,171.28,0,0,1,755.53,2235.71Z" transform="translate(-458.05 -455)"/><path class="cls-68" d="M935.55,2024.33a4,4,0,0,0-7.68-.66l-12.46,36.85a36.69,36.69,0,0,0-.46,22l8,19.72a35.38,35.38,0,0,1-4,28.8c-12.95,20.54-41.16,58.57-84.72,82.71,9.31,14.85,23.35,33.68,42.34,50,30.32-29.34,54.81-67.18,65.08-115.84a17.31,17.31,0,0,0,10.21-18.47Z" transform="translate(-458.05 -455)"/><path class="cls-69" d="M1550.56,1936.55L939.83,1905c-12-.62-22.07,6.61-22.42,16.06l-13.79,369.83c-0.35,9.51,9.27,17.56,21.34,17.81,110.57,2.32,601.49,12.71,623.1,14.39,21.36,1.66,23-295.85,23-369.27C1571.1,1944.76,1562.05,1937.15,1550.56,1936.55Z" transform="translate(-458.05 -455)"/><path class="cls-8" d="M1536.65,2309.65c-80.57-2.69-523.64-12-611.64-13.9h-0.13a4.25,4.25,0,0,1-4.29-4.15l13.79-369.83a3.76,3.76,0,0,1,1.63-2.93,4.86,4.86,0,0,1,3.09-.87l610.73,31.53a4.28,4.28,0,0,1,4.29,4c-0.17,181.63-6.23,320.83-15.43,354.64l-0.42,1.55ZM938.44,1921.92L924.6,2291.53a0.61,0.61,0,0,0,.37.16h0.13c87.43,1.84,525.32,11.08,610.07,13.85,8.89-36,14.72-173.41,14.95-351.8a0.76,0.76,0,0,0-.49-0.17L938.9,1922h-0.12A0.31,0.31,0,0,1,938.44,1921.92Z" transform="translate(-458.05 -455)"/><path class="cls-8" d="M1151.34,1979.33h0c-0.42,9.35-3.87,16.79-7.71,16.62l-169.76-7.56c-3.84-.17-6.62-7.89-6.2-17.24h0c0.42-9.35,3.87-16.79,7.71-16.62l169.76,7.56C1149,1962.26,1151.76,1970,1151.34,1979.33Z" transform="translate(-458.05 -455)"/><path class="cls-8" d="M1150.61,2025.39h0c-0.21,4.68-3.49,8.33-7.33,8.16L973.52,2026c-3.84-.17-6.78-4.1-6.58-8.78h0c0.21-4.68,3.49-8.33,7.33-8.16l169.76,7.56C1147.87,2016.78,1150.82,2020.71,1150.61,2025.39Z" transform="translate(-458.05 -455)"/><path class="cls-8" d="M1150.61,2060.65h0c-0.21,4.68-3.49,8.33-7.33,8.16l-169.76-7.56c-3.84-.17-6.78-4.1-6.58-8.78h0c0.21-4.68,3.49-8.33,7.33-8.16l169.76,7.56C1147.87,2052,1150.82,2056,1150.61,2060.65Z" transform="translate(-458.05 -455)"/><path class="cls-8" d="M1186.09,2254.61l-6.73-.78a8.13,8.13,0,0,1-7.18-8.06l-0.23-128.29a8.13,8.13,0,0,1,8.17-8.15c0.29,0,12.4-.08,23-5.5,3.59-1.83,8.6-11.57,13-20.17,6.83-13.28,15.32-29.8,28.87-42.12,22-20,22.54-53.68,22.53-57.46,0-8.3,7.68-19.6,18-22.31,6.31-1.66,18.55-1.49,29.64,18.26,13.86,24.67,3.17,54.54-3.91,74.31-2.2,6.14-4.27,11.94-4.88,15.6a3.46,3.46,0,0,0,0,.37c3.83,3.06,22.83,2.31,34.29,1.85,6-.24,12.3-0.49,18.36-0.5,21.18,0,45.65,3.67,47,33,0.54,12.1-5.53,20.4-11.3,25.5,8.32,9,12.12,18.13,11.29,27.37-0.75,8.37-5.23,14.82-9.55,19.2a30.24,30.24,0,0,1,6,29.77,35.81,35.81,0,0,1-13.3,18.06,18.15,18.15,0,0,1,3.19,13c-2,14-20.52,26.07-44.05,28.73C1319.8,2269.44,1214.21,2257.82,1186.09,2254.61Zm2.14-129.63,0.2,113.53c28.27,3.21,131.73,14.54,158.05,11.57,18.72-2.11,29.18-10.66,29.78-14.86,0.23-1.61-2.58-3.93-7-5.77a8.13,8.13,0,0,1,3.32-15.63c5.61,0.13,12.21-5.52,14.41-12.34,1.59-4.93,1.54-12.14-7.68-18.44a8.13,8.13,0,0,1,.64-13.82s9.22-5.48,9.86-13.25c0.63-7.54-6.86-15.35-13.25-20.57a8.13,8.13,0,0,1,1.92-13.76c0.43-.19,11.78-5.43,11.29-16.28-0.37-8.19-.76-17.48-30.69-17.43-5.75,0-11.85.26-17.74,0.49-22,.88-39.3,1.58-47.34-7.53a15.83,15.83,0,0,1-3.59-13.59c0.84-5.12,3.05-11.29,5.61-18.44,6.44-18,15.27-42.65,5-60.86-4-7.06-8.21-11.14-11.11-10.54s-5.89,5.12-6.11,6.79c0,4.33-.69,44.64-27.84,69.34-11.37,10.34-18.79,24.78-25.34,37.52s-11.83,23-20.1,27.23A70.48,70.48,0,0,1,1188.22,2125Zm118.17-54.42h0Z" transform="translate(-458.05 -455)"/><path class="cls-70" d="M804.22,2287.48c-50.75-43.66-139.43-56-190.35-59.39A46.07,46.07,0,0,0,566,2262.88c-15.65,62.9-59,226.85-67.82,255.18-7.22,23.24-14.92,46-19.84,60.26a16.34,16.34,0,0,0,10,20.78c44.27,15.5,122.4,29.88,154,35.36a10.57,10.57,0,0,0,12.31-11.63,33,33,0,0,1,2.77-17.42L751.66,2399c81.34,72,145.48,72.21,192.14,49.17A368.12,368.12,0,0,1,919.14,2374C845.89,2369.84,804.22,2287.48,804.22,2287.48Z" transform="translate(-458.05 -455)"/><path class="cls-71" d="M1036.39,2347.2l-14.92-15.83c-38.73,33.57-73.05,44.36-102.33,42.67a368.12,368.12,0,0,0,24.66,74.15C1005.27,2417.86,1036.39,2347.2,1036.39,2347.2Z" transform="translate(-458.05 -455)"/><path class="cls-72" d="M1027.28,2348.55l73.38-5.39,63-45.15c-10.34-5-63.54,13.56-63.54,13.56s-58.05-2.2-73.5-.47c-12.83,1.43-8.92,19.67-7.22,25.81,0.35,1.25.6,2,.6,2Z" transform="translate(-458.05 -455)"/><path class="cls-73" d="M672.41,2130.8l-27.94,98.41s47.75,25.66,83.05,18.73l9.7-86.75Z" transform="translate(-458.05 -455)"/><path class="cls-74" d="M747.22,2084.31s36.85,69.37,32.13,97.39-50.39,26-90.27,3.25L661.2,2110Z" transform="translate(-458.05 -455)"/><path class="cls-75" d="M690.83,2148.16a2.86,2.86,0,0,0,1.25-4.18c-3-4.51-8.49-13.71-10.25-21.77,0,0-6.62-4.24,16.86-9.86S757.2,2098,764.56,2078c7.18-19.49-11.68-68.51-41.77-29.45a2.86,2.86,0,0,1-4.53,0c-4.93-6.42-17.9-19.74-35.9-11.66-16.85,7.56-18.74,19.9-18.51,26.13a2.84,2.84,0,0,1-3.37,2.91c-8.52-1.62-29-3-38.5,17.95-7.86,17.27-2.75,27,1.9,31.83a2.85,2.85,0,0,1-1.22,4.73c-5.6,1.71-12.83,6.46-12.1,19.58,1,18.13,21.27,16.53,27,15.71a2.86,2.86,0,0,1,2.54.9c4.95,5.48,27.25,28.73,51.38,31.53a2.88,2.88,0,0,0,3-3.81L684.1,2154a2.87,2.87,0,0,1,1.55-3.56Z" transform="translate(-458.05 -455)"/><path class="cls-76" d="M695,2152.47s-26.24-18-28.16-2.84,23.63,22,36.28,16.31Z" transform="translate(-458.05 -455)"/><path class="cls-77" d="M1778.18,2037.26s14.52-20,9.42-34.92-16.09-20.79-20.79-20.79-3.14,49.83-3.14,49.83Z" transform="translate(-458.05 -455)"/><path class="cls-78" d="M2248,3183.84s-15.14,21.82-15.9,52.47a13.26,13.26,0,0,0,12.88,13.43l116.53,4.06a5.58,5.58,0,0,0,3.56-10c-21.51-16.25-63.84-46.69-94.79-59.15Z" transform="translate(-458.05 -455)"/><path class="cls-79" d="M2245.1,3146.63l3,44.8a9.07,9.07,0,0,0,9.66,8.53,32.79,32.79,0,0,0,10.74-2.85,10.41,10.41,0,0,0,6.05-9.89l-2-54.05Z" transform="translate(-458.05 -455)"/><path class="cls-80" d="M1598.79,2988.39s-24.3-10.72-54.54-5.66a13.27,13.27,0,0,0-10.74,15.19l18.12,115.19a5.58,5.58,0,0,0,10.53,1.59c11.88-24.2,33.73-71.54,40.1-104.3Z" transform="translate(-458.05 -455)"/><path class="cls-81" d="M1634.77,2978.48l-43.42,11.43a9.07,9.07,0,0,0-6.54,11.1,32.8,32.8,0,0,0,4.84,10,10.41,10.41,0,0,0,10.86,4.07l52.69-12.25Z" transform="translate(-458.05 -455)"/><path class="cls-82" d="M2256.21,2101.8s3.9-9,3.27-14.36-0.78-22,9.22-29c0,0,5.42.27,5.52,6.34,6.37-6.83,6.69-12.73,13.27-8.55s31.34,19.21,19,29.11-31.8,28.76-31.8,28.76Z" transform="translate(-458.05 -455)"/><path class="cls-83" d="M2014.81,2792.85s-22.05,176-85.2,182.73-305,41.65-305,41.65l-6.72-36.28s139.74-84.65,223-83.3c41.65-61.81,31.49-232.59,31.49-232.59Z" transform="translate(-458.05 -455)"/><path class="cls-84" d="M1742.84,2027.26c2.69,200.89,121.38,394.75,121.38,394.75v220.47h146.32s70.38-171.18,68.55-228.47c109.59-11.82,186.36-266.39,197.43-298.8-5.16-3.92-12.58-14-23.11-22.51-161.24,217.67-201.54,229.61-201.54,229.61h-80.62c-102.12-12.56-188.11-295.05-188.11-295.05h-40.31Z" transform="translate(-458.05 -455)"/><path class="cls-85" d="M1869.93,2642.36s-11.54,122.64,230.71,218.49c59.12,110.18,136.66,315.23,136.66,315.23h51.06s-34.93-309.85-96.74-371.66-129.23-131.19-181.06-161.64C1890.64,2630.23,1869.93,2642.36,1869.93,2642.36Z" transform="translate(-458.05 -455)"/><path class="cls-86" d="M1973.21,2242.68l-26.72,94.1s45.66,24.54,79.41,17.91l9.28-82.95Z" transform="translate(-458.05 -455)"/><path class="cls-87" d="M2025.88,2176.72c0.87,1,22.59,53.64,37.36,89.6,3.42,8.31,2.77,18.2-1.75,27.14a40.68,40.68,0,0,1-21.9,19.57l-1.3.48c-18,6.66-36.6,1.06-45.28-13.62l-49.13-83.16S2003.82,2151.91,2025.88,2176.72Z" transform="translate(-458.05 -455)"/><path class="cls-88" d="M2002.1,2192.67c-13.27.5-21.59,14.71-24.82,21.45a7.67,7.67,0,0,0,0,6.74l21.37,44.14a6.85,6.85,0,0,1-2.79,8.95l-7.87,4.45a6.84,6.84,0,0,1-9-2.13c-3-4.42-5.56-8-7.33-10.15-7.32-8.68-22.59-6.67-28.91-5.38a7.88,7.88,0,0,1-6-1.29c-6.17-4.23-18.22-15.64-4.88-32.35a8,8,0,0,0-1.51-11.26c-7.1-5.31-15.21-15.28-6-29.84,9.4-14.77,24-14.27,33.21-12a7.82,7.82,0,0,0,9-4.52c0.86-2,2.65-3.59,6-3.73a7.66,7.66,0,0,0,7.32-8.82c-1.08-8.61.79-19.94,15.28-26.32,25.82-11.33,45.4,12.55,49.2,31.7S2019.6,2192,2002.1,2192.67Z" transform="translate(-458.05 -455)"/><path class="cls-89" d="M1980.72,2284.48s-8.09-33-22.2-33-26.37,12.9-10.41,30.12C1968,2303,1980.72,2284.48,1980.72,2284.48Z" transform="translate(-458.05 -455)"/><path class="cls-5" d="M2284.83,1748.88s-39.49,20.4-103.84,0-128.82,41-128.82,41,154,6.05,183.81,53.14,48.84,34.53,48.84,34.53V1748.88Z" transform="translate(-458.05 -455)"/><rect class="cls-90" x="1814.23" y="1289.76" width="25.11" height="376.66" rx="10.99" ry="10.99"/><path class="cls-5" d="M1763.78,1692.38s-39.49,20.4-103.84,0-128.82,41-128.82,41,154,6.05,183.81,53.14,48.84,34.53,48.84,34.53V1692.38Z" transform="translate(-458.05 -455)"/><rect class="cls-91" x="1293.18" y="1233.26" width="25.11" height="376.66" rx="10.99" ry="10.99"/><path class="cls-92" d="M1734.78,1997.87s31.35-13.88,27.32,9.41,4.39,40.31-13.48,42.1S1728.71,2014,1734.78,1997.87Z" transform="translate(-458.05 -455)"/><path class="cls-93" d="M2287.21,2054.37s31.35-13.88,27.32,9.41,4.39,40.31-13.48,42.1S2281.15,2070.46,2287.21,2054.37Z" transform="translate(-458.05 -455)"/></g></g></svg>