<svg width="320" height="267" viewBox="0 0 320 267" fill="none" xmlns="http://www.w3.org/2000/svg">
<rect width="320" height="179.459" rx="10" fill="#969696"/>
<rect x="7.11108" y="7.00328" width="306.667" height="166.328" rx="10" fill="#343131"/>
<rect y="179.459" width="320" height="87.541" rx="10" fill="#C4C4C4"/>
<rect x="44.4445" y="237.236" width="17.7778" height="6.12787" rx="3.06393" fill="#272727"/>
<rect x="128.889" y="237.236" width="66.6667" height="6.12787" rx="3.06393" fill="#272727"/>
<rect x="97.7778" y="237.236" width="17.7778" height="6.12787" rx="3.06393" fill="#272727"/>
<rect x="71.1111" y="237.236" width="17.7778" height="6.12787" rx="3.06393" fill="#272727"/>
<rect x="262.222" y="237.236" width="17.7778" height="6.12787" rx="3.06393" fill="#272727"/>
<rect x="208.889" y="237.236" width="17.7778" height="6.12787" rx="3.06393" fill="#272727"/>
<rect x="235.556" y="237.236" width="17.7778" height="6.12787" rx="3.06393" fill="#272727"/>
<rect x="31.1111" y="223.229" width="17.7778" height="6.12787" rx="3.06393" fill="#272727"/>
<rect x="137.778" y="223.23" width="17.7778" height="6.12787" rx="3.06393" fill="#272727"/>
<rect x="84.4445" y="223.23" width="17.7778" height="6.12787" rx="3.06393" fill="#272727"/>
<rect x="111.111" y="223.23" width="17.7778" height="6.12787" rx="3.06393" fill="#272727"/>
<rect x="57.7778" y="223.23" width="17.7778" height="6.12787" rx="3.06393" fill="#272727"/>
<rect x="164.444" y="223.23" width="17.7778" height="6.12787" rx="3.06393" fill="#272727"/>
<rect x="271.111" y="223.23" width="17.7778" height="6.12787" rx="3.06393" fill="#272727"/>
<rect x="217.778" y="223.23" width="17.7778" height="6.12787" rx="3.06393" fill="#272727"/>
<rect x="244.444" y="223.23" width="17.7778" height="6.12787" rx="3.06393" fill="#272727"/>
<rect x="191.111" y="223.23" width="17.7778" height="6.12787" rx="3.06393" fill="#272727"/>
<rect x="45.3333" y="209.223" width="17.7778" height="6.12787" rx="3.06393" fill="#272727"/>
<rect x="152" y="209.223" width="17.7778" height="6.12787" rx="3.06393" fill="#272727"/>
<rect x="98.6666" y="209.223" width="17.7778" height="6.12787" rx="3.06393" fill="#272727"/>
<rect x="125.333" y="209.223" width="17.7778" height="6.12787" rx="3.06393" fill="#272727"/>
<rect x="72" y="209.223" width="17.7778" height="6.12787" rx="3.06393" fill="#272727"/>
<rect x="178.667" y="209.223" width="17.7778" height="6.12787" rx="3.06393" fill="#272727"/>
<rect x="263.111" y="209.223" width="17.7778" height="6.12787" rx="3.06393" fill="#272727"/>
<rect x="209.778" y="209.223" width="17.7778" height="6.12787" rx="3.06393" fill="#272727"/>
<rect x="236.444" y="209.223" width="17.7778" height="6.12787" rx="3.06393" fill="#272727"/>
<rect x="32" y="195.216" width="17.7778" height="6.12787" rx="3.06393" fill="#272727"/>
<rect x="138.667" y="195.216" width="17.7778" height="6.12787" rx="3.06393" fill="#272727"/>
<rect x="85.3333" y="195.216" width="17.7778" height="6.12787" rx="3.06393" fill="#272727"/>
<rect x="112" y="195.216" width="17.7778" height="6.12787" rx="3.06393" fill="#272727"/>
<rect x="58.6667" y="195.216" width="17.7778" height="6.12787" rx="3.06393" fill="#272727"/>
<rect x="165.333" y="195.216" width="17.7778" height="6.12787" rx="3.06393" fill="#272727"/>
<rect x="272" y="195.216" width="17.7778" height="6.12787" rx="3.06393" fill="#272727"/>
<rect x="218.667" y="195.216" width="17.7778" height="6.12787" rx="3.06393" fill="#272727"/>
<rect x="245.333" y="195.216" width="17.7778" height="6.12787" rx="3.06393" fill="#272727"/>
<rect x="192" y="195.216" width="17.7778" height="6.12787" rx="3.06393" fill="#272727"/>
</svg>
