<svg width="291" height="147" viewBox="0 0 291 147" fill="none" xmlns="http://www.w3.org/2000/svg">
<rect width="291" height="147" rx="10" fill="#DDDDDD"/>
<rect x="67" y="15" width="162" height="132" fill="white"/>
<rect x="75" y="32" width="144" height="2" rx="1" fill="black"/>
<rect x="75" y="19" width="144" height="3" rx="1.5" fill="#333333"/>
<rect x="75" y="68" width="138" height="2" rx="1" fill="black"/>
<rect x="75" y="80" width="131" height="2" rx="1" fill="black"/>
<rect x="75" y="92" width="122" height="2" rx="1" fill="black"/>
<rect x="75" y="104" width="50" height="2" rx="1" fill="black"/>
<rect x="75" y="116" width="114" height="2" rx="1" fill="black"/>
<rect x="75" y="128" width="144" height="2" rx="1" fill="black"/>
<rect x="75" y="140" width="56" height="2" rx="1" fill="black"/>
<rect x="75" y="56" width="108" height="2" rx="1" fill="black"/>
<rect x="75" y="44" width="144" height="2" rx="1" fill="black"/>
<rect width="291" height="15" rx="7.5" fill="#406AFF"/>
</svg>
